TITLE ""
FILE "P1Q_t_0930-0939.mp3" MP3
  TRACK 01 AUDIO
    TITLE "P1Q_t_0930-0939_01"
    INDEX 01 00:00:00
  TRACK 02 AUDIO
    TITLE "P1Q_t_0930-0939_02"
    INDEX 01 00:01:08
  TRACK 03 AUDIO
    TITLE "P1Q_t_0930-0939_03"
    INDEX 01 00:01:55
  TRACK 04 AUDIO
    TITLE "P1Q_t_0930-0939_04"
    INDEX 01 00:02:68
  TRACK 05 AUDIO
    TITLE "P1Q_t_0930-0939_05"
    INDEX 01 00:03:16
  TRACK 06 AUDIO
    TITLE "P1Q_t_0930-0939_06"
    INDEX 01 00:05:60
  TRACK 07 AUDIO
    TITLE "P1Q_t_0930-0939_07"
    INDEX 01 00:06:05
  TRACK 08 AUDIO
    TITLE "P1Q_t_0930-0939_08"
    INDEX 01 00:12:61
  TRACK 09 AUDIO
    TITLE "P1Q_t_0930-0939_09"
    INDEX 01 00:13:33
  TRACK 10 AUDIO
    TITLE "P1Q_t_0930-0939_10"
    INDEX 01 00:14:46
  TRACK 11 AUDIO
    TITLE "P1Q_t_0930-0939_11"
    INDEX 01 00:14:69
  TRACK 12 AUDIO
    TITLE "P1Q_t_0930-0939_12"
    INDEX 01 00:17:13
  TRACK 13 AUDIO
    TITLE "P1Q_t_0930-0939_13"
    INDEX 01 00:17:32
  TRACK 14 AUDIO
    TITLE "P1Q_t_0930-0939_14"
    INDEX 01 00:21:63
  TRACK 15 AUDIO
    TITLE "P1Q_t_0930-0939_15"
    INDEX 01 00:22:35
  TRACK 16 AUDIO
    TITLE "P1Q_t_0930-0939_16"
    INDEX 01 00:23:72
  TRACK 17 AUDIO
    TITLE "P1Q_t_0930-0939_17"
    INDEX 01 00:24:19
  TRACK 18 AUDIO
    TITLE "P1Q_t_0930-0939_18"
    INDEX 01 00:27:39
  TRACK 19 AUDIO
    TITLE "P1Q_t_0930-0939_19"
    INDEX 01 00:27:58
  TRACK 20 AUDIO
    TITLE "P1Q_t_0930-0939_20"
    INDEX 01 00:33:41
  TRACK 21 AUDIO
    TITLE "P1Q_t_0930-0939_21"
    INDEX 01 00:34:19
  TRACK 22 AUDIO
    TITLE "P1Q_t_0930-0939_22"
    INDEX 01 00:35:20
  TRACK 23 AUDIO
    TITLE "P1Q_t_0930-0939_23"
    INDEX 01 00:35:36
  TRACK 24 AUDIO
    TITLE "P1Q_t_0930-0939_24"
    INDEX 01 00:37:47
  TRACK 25 AUDIO
    TITLE "P1Q_t_0930-0939_25"
    INDEX 01 00:37:68
  TRACK 26 AUDIO
    TITLE "P1Q_t_0930-0939_26"
    INDEX 01 00:42:38
  TRACK 27 AUDIO
    TITLE "P1Q_t_0930-0939_27"
    INDEX 01 00:43:12
  TRACK 28 AUDIO
    TITLE "P1Q_t_0930-0939_28"
    INDEX 01 00:44:15
  TRACK 29 AUDIO
    TITLE "P1Q_t_0930-0939_29"
    INDEX 01 00:44:37
  TRACK 30 AUDIO
    TITLE "P1Q_t_0930-0939_30"
    INDEX 01 00:45:46
  TRACK 31 AUDIO
    TITLE "P1Q_t_0930-0939_31"
    INDEX 01 00:45:66
  TRACK 32 AUDIO
    TITLE "P1Q_t_0930-0939_32"
    INDEX 01 00:50:63
  TRACK 33 AUDIO
    TITLE "P1Q_t_0930-0939_33"
    INDEX 01 00:51:35
  TRACK 34 AUDIO
    TITLE "P1Q_t_0930-0939_34"
    INDEX 01 00:52:62
  TRACK 35 AUDIO
    TITLE "P1Q_t_0930-0939_35"
    INDEX 01 00:53:09
  TRACK 36 AUDIO
    TITLE "P1Q_t_0930-0939_36"
    INDEX 01 00:54:24
  TRACK 37 AUDIO
    TITLE "P1Q_t_0930-0939_37"
    INDEX 01 00:54:43
  TRACK 38 AUDIO
    TITLE "P1Q_t_0930-0939_38"
    INDEX 01 00:59:13
  TRACK 39 AUDIO
    TITLE "P1Q_t_0930-0939_39"
    INDEX 01 00:59:60
  TRACK 40 AUDIO
    TITLE "P1Q_t_0930-0939_40"
    INDEX 01 01:01:04
  TRACK 41 AUDIO
    TITLE "P1Q_t_0930-0939_41"
    INDEX 01 01:01:26
  TRACK 42 AUDIO
    TITLE "P1Q_t_0930-0939_42"
    INDEX 01 01:03:07
  TRACK 43 AUDIO
    TITLE "P1Q_t_0930-0939_43"
    INDEX 01 01:03:28
  TRACK 44 AUDIO
    TITLE "P1Q_t_0930-0939_44"
    INDEX 01 01:09:55
  TRACK 45 AUDIO
    TITLE "P1Q_t_0930-0939_45"
    INDEX 01 01:10:27
  TRACK 46 AUDIO
    TITLE "P1Q_t_0930-0939_46"
    INDEX 01 01:11:32
  TRACK 47 AUDIO
    TITLE "P1Q_t_0930-0939_47"
    INDEX 01 01:11:55
  TRACK 48 AUDIO
    TITLE "P1Q_t_0930-0939_48"
    INDEX 01 01:16:60
  TRACK 49 AUDIO
    TITLE "P1Q_t_0930-0939_49"
    INDEX 01 01:17:05
  TRACK 50 AUDIO
    TITLE "P1Q_t_0930-0939_50"
    INDEX 01 01:21:05
  TRACK 51 AUDIO
    TITLE "P1Q_t_0930-0939_51"
    INDEX 01 01:21:52
  TRACK 52 AUDIO
    TITLE "P1Q_t_0930-0939_52"
    INDEX 01 01:22:55
  TRACK 53 AUDIO
    TITLE "P1Q_t_0930-0939_53"
    INDEX 01 01:23:02
  TRACK 54 AUDIO
    TITLE "P1Q_t_0930-0939_54"
    INDEX 01 01:25:42
  TRACK 55 AUDIO
    TITLE "P1Q_t_0930-0939_55"
    INDEX 01 01:25:61
  TRACK 56 AUDIO
    TITLE "P1Q_t_0930-0939_56"
    INDEX 01 01:30:35
  TRACK 57 AUDIO
    TITLE "P1Q_t_0930-0939_57"
    INDEX 01 01:31:07
  TRACK 58 AUDIO
    TITLE "P1Q_t_0930-0939_58"
    INDEX 01 01:32:05
  TRACK 59 AUDIO
    TITLE "P1Q_t_0930-0939_59"
    INDEX 01 01:32:24
  TRACK 60 AUDIO
    TITLE "P1Q_t_0930-0939_60"
    INDEX 01 01:35:23
  TRACK 61 AUDIO
    TITLE "P1Q_t_0930-0939_61"
    INDEX 01 01:35:42
  TRACK 62 AUDIO
    TITLE "P1Q_t_0930-0939_62"
    INDEX 01 01:39:52
